<?xml version="1.0" encoding="UTF-8" standalone="no"?>
<svg
   version="1.1"
   width="1050.3752pt"
   height="463.51932pt"
   id="svg2211"
   viewBox="0 0 1050.3752 463.51932"
   sodipodi:docname="Рисунок2.cdr"
   inkscape:export-filename=".\school_logo.svg"
   inkscape:export-xdpi="96"
   inkscape:export-ydpi="96"
   xmlns:inkscape="http://www.inkscape.org/namespaces/inkscape"
   xmlns:sodipodi="http://sodipodi.sourceforge.net/DTD/sodipodi-0.dtd"
   xmlns="http://www.w3.org/2000/svg"
   xmlns:svg="http://www.w3.org/2000/svg">
  <defs
     id="defs2215" />
  <sodipodi:namedview
     id="namedview2213"
     pagecolor="#ffffff"
     bordercolor="#000000"
     borderopacity="0.25"
     inkscape:showpageshadow="2"
     inkscape:pageopacity="0.0"
     inkscape:pagecheckerboard="0"
     inkscape:deskcolor="#d1d1d1"
     showgrid="false"
     inkscape:document-units="pt" />
  <path
     d="m 310.9643,460.98651 298.0568,-19.8844 7.3797,19.4836 z"
     style="fill:#960000;fill-rule:evenodd"
     id="path2203" />
  <path
     d="m 163.6585,37.800008 -2.365,11.0001 h -26.5907 l 2.365,-11.0001 c 0.2007,-0.9334 -0.0987,-1.4 -0.8986,-1.4 H 47.800205 c -0.9331,0 -1.4998,0.4666 -1.7004,1.4 l -6.364,29.6002 c -0.2007,0.9335 0.1653,1.4001 1.0985,1.4001 H 129.2032 c 7.5974,0 13.548,2.7 17.8519,8.1 4.3036,5.4 5.6241,11.9667 3.9615,19.6999 l -6.364,29.600502 c -1.6626,7.7332 -5.8068,14.2999 -12.4324,19.6999 -6.6259,5.4 -13.7374,8.1 -21.3348,8.1 H 22.516505 c -7.7307,0 -13.7147002,-2.7 -17.9520002,-8.1 -4.23699999,-5.4 -5.52429999,-11.9667 -3.86169999,-19.6999 L 3.0678048,115.20031 H 29.458905 l -2.365,11.0004 c -0.2006,0.9332 0.1653,1.4 1.0984,1.4 H 116.5613 c 0.7999,0 1.3,-0.4668 1.5006,-1.4 l 6.364,-29.600502 c 0.2007,-0.9332 -0.0987,-1.3997 -0.8986,-1.3997 H 35.158305 c -7.7306,0 -13.7146,-2.7 -17.9519,-8.1 -4.2371,-5.4 -5.5244,-11.9668 -3.8617,-19.7003 l 6.3639,-29.6002 c 1.6627,-7.7335 5.7736,-14.2999 12.3326,-19.6999 6.5593,-5.4 13.7043,-8.1 21.4349,-8.1 H 141.8451 c 7.5974,0 13.5479,2.7 17.8518,8.1 4.3037,5.4 5.6242,11.9664 3.9616,19.6999 z m 86.4917,26.4002 H 204.9659 L 191.593,126.40061 c -0.2007,0.9334 0.1659,1.4 1.0988,1.4 h 43.7845 l -5.633,26.2 h -43.7845 c -7.7306,0 -13.6811,-2.7 -17.8516,-8.1 -4.1707,-5.4 -5.4388,-11.9001 -3.8049,-19.5 L 192.578,7.7805868e-6 h 26.1907 L 210.5988,38.000108 h 45.1843 z m 111.5959,-26.2001 c 7.5974,0 13.5145,2.7 17.7515,8.1 4.2374,5.4 5.5388,11.8999 3.9048,19.5001 l -19.0059,88.400402 h -90.168 c -7.5975,0 -13.5148,-2.7 -17.7519,-8.1 -4.237,-5.4 -5.5386,-11.9001 -3.9047,-19.5 l 9.3739,-43.600302 h 91.5682 l 3.6979,-17.2001 c 0.2007,-0.9331 -0.1658,-1.4 -1.0987,-1.4 h -90.1684 l 5.6329,-26.2001 z m -17.907,89.800502 3.999,-18.6004 h -65.3772 l -3.698,17.2004 c -0.2007,0.9334 0.1653,1.4 1.0985,1.4 z m 94.0805,-89.800502 h 64.3776 l -5.6329,26.2001 h -64.3777 c -0.9331,0 -1.4998,0.4669 -1.7004,1.4 l -19.0058,88.400402 h -26.191 l 19.0058,-88.400402 c 1.634,-7.6002 5.7306,-14.1001 12.2896,-19.5001 6.5593,-5.4 13.6376,-8.1 21.2348,-8.1 z m 143.9147,26.2001 h -45.1842 l -13.3729,62.200402 c -0.2007,0.9334 0.1659,1.4 1.0984,1.4 h 43.7848 l -5.6329,26.2 h -43.7848 c -7.7303,0 -13.6809,-2.7 -17.8513,-8.1 -4.1707,-5.4 -5.4389,-11.9001 -3.8049,-19.5 L 524.2622,7.7805868e-6 h 26.1907 L 542.283,38.000108 h 45.1842 z"
     style="fill:#5a5a5a;fill-rule:evenodd"
     id="path2205" />
  <path
     d="m 809.9296,347.31871 -2.365,11.0001 h -26.5907 l 2.365,-11.0001 c 0.2007,-0.9335 -0.0987,-1.4001 -0.8986,-1.4001 h -88.3689 c -0.9332,0 -1.4998,0.4666 -1.7005,1.4001 l -6.3639,29.5999 c -0.2007,0.9334 0.1653,1.4 1.0985,1.4 h 88.3689 c 7.5974,0 13.548,2.7 17.8518,8.1003 4.3037,5.4 5.6242,11.9668 3.9616,19.7 l -6.364,29.6002 c -1.6626,7.7332 -5.8068,14.3002 -12.4324,19.7002 -6.6259,5.4 -13.7374,8.1 -21.3349,8.1 h -88.3689 c -7.7307,0 -13.7146,-2.7 -17.9519,-8.1 -4.2371,-5.4 -5.5243,-11.967 -3.8617,-19.7002 l 2.365,-11.0002 h 26.3911 l -2.365,11.0002 c -0.2006,0.9331 0.1653,1.4 1.0985,1.4 h 88.3689 c 0.7999,0 1.3,-0.4669 1.5006,-1.4 l 6.364,-29.6002 c 0.2006,-0.9332 -0.0988,-1.3998 -0.8987,-1.3998 h -88.369 c -7.7306,0 -13.7146,-2.7 -17.9519,-8.1 -4.237,-5.4 -5.5243,-11.9667 -3.8616,-19.7005 l 6.3639,-29.5999 c 1.6627,-7.7335 5.7736,-14.3 12.3326,-19.7 6.5593,-5.4 13.7042,-8.1 21.4349,-8.1 h 88.3689 c 7.5974,0 13.548,2.7 17.8519,8.1 4.3036,5.4 5.6242,11.9665 3.9615,19.7 z m 110.7182,0.2001 c 7.5974,0 13.5145,2.7 17.7515,8.1 4.2374,5.4 5.5388,11.8998 3.9048,19.4998 l -19.0059,88.4007 h -90.1681 c -7.5974,0 -13.5147,-2.7 -17.7518,-8.1 -4.237,-5.4 -5.5386,-11.9004 -3.9046,-19.5004 l 9.3738,-43.6 h 91.5682 l 3.698,-17.2003 c 0.2006,-0.9332 -0.1659,-1.4 -1.0988,-1.4 h -90.1683 l 5.6328,-26.1998 z m -17.907,89.8001 3.999,-18.6 h -65.3772 l -3.6979,17.2 c -0.2007,0.9335 0.1653,1.4 1.0984,1.4 z m 41.5503,26.2004 24.9397,-116.0005 h 26.191 l -24.9398,116.0005 z m 33.1097,-154.0009 h 26.191 l -5.676,26.4002 h -26.191 z m 46.584,0 h 26.3905 l -27.1757,126.4005 c -0.2007,0.9335 0.099,1.4 0.8989,1.4 h 23.3918 l -5.633,26.2004 h -23.3918 c -7.5974,0 -13.5148,-2.7 -17.7518,-8.1 -4.2373,-5.4 -5.5386,-11.9004 -3.9046,-19.5004 z"
     style="fill:#960000;fill-rule:evenodd"
     id="path2207" />
  <path
     d="m 621.4487,460.58971 14.643,-68.5347 -305.5958,45.3666 -16.2136,18.5003 297.9283,-19.7428 z M 641.9115,364.77531 719.7214,0.04080778 334.222,433.23421 Z"
     style="fill:#5a5a5a;fill-rule:evenodd;stroke:#ffffff;stroke-width:0.004;stroke-linecap:butt;stroke-linejoin:miter;stroke-dasharray:none"
     id="path2209" />
</svg>
