<svg xmlns="http://www.w3.org/2000/svg" viewBox="0 0 1200 760" role="img" aria-label="Парусная яхта на Адриатике">
  <defs>
    <linearGradient id="sky" x1="0" y1="0" x2="1" y2="1"><stop offset="0" stop-color="#F7F8F8"/><stop offset="0.58" stop-color="#d6dde0"/><stop offset="1" stop-color="#8f2726" stop-opacity=".65"/></linearGradient>
    <linearGradient id="sea" x1="0" y1="0" x2="1" y2="0"><stop offset="0" stop-color="#586063"/><stop offset="1" stop-color="#20282B"/></linearGradient>
    <filter id="shadow" x="-20%" y="-20%" width="140%" height="140%"><feDropShadow dx="0" dy="18" stdDeviation="18" flood-color="#20282B" flood-opacity=".25"/></filter>
  </defs>
  <rect width="1200" height="760" fill="url(#sky)"/>
  <path d="M0 498c160-48 270-28 408-10 184 24 298-44 476-24 124 14 220 64 316 22v274H0z" fill="url(#sea)" opacity=".95"/>
  <path d="M0 560c130-34 245-20 380-4 192 22 300-34 482-18 144 13 244 44 338 20" fill="none" stroke="#fff" stroke-opacity=".35" stroke-width="5"/>
  <path d="M668 132v384" stroke="#20282B" stroke-width="10" stroke-linecap="round"/>
  <path d="M668 146C558 256 500 354 466 484h202z" fill="#fff" filter="url(#shadow)"/>
  <path d="M684 178c104 96 155 202 188 326H684z" fill="#F2F0ED" filter="url(#shadow)"/>
  <path d="M360 514h550c-44 58-102 86-190 90H486c-70-8-108-40-126-90z" fill="#8F2726"/>
  <path d="M410 542h438" stroke="#F7F8F8" stroke-opacity=".55" stroke-width="6" stroke-linecap="round"/>
  <circle cx="1010" cy="126" r="56" fill="#fff" opacity=".38"/>
</svg>
