<svg xmlns="http://www.w3.org/2000/svg" viewBox="0 0 1200 760" role="img" aria-label="Календарь событий StartSail">
  <defs>
    <linearGradient id="bg" x1="0" y1="0" x2="1" y2="1"><stop offset="0" stop-color="#F2F0ED"/><stop offset=".5" stop-color="#F7F8F8"/><stop offset="1" stop-color="#d9c8c3"/></linearGradient>
    <filter id="shadow" x="-20%" y="-20%" width="140%" height="140%"><feDropShadow dx="0" dy="20" stdDeviation="22" flood-color="#20282B" flood-opacity=".18"/></filter>
  </defs>
  <rect width="1200" height="760" fill="url(#bg)"/>
  <path d="M0 560c120-34 224-22 348-6 160 20 292-30 438-20 154 10 260 54 414 20v206H0z" fill="#586063" opacity=".22"/>
  <g filter="url(#shadow)">
    <rect x="252" y="120" width="696" height="500" rx="36" fill="#fff"/>
    <rect x="252" y="120" width="696" height="112" rx="36" fill="#8F2726"/>
    <path d="M252 198h696v58H252z" fill="#8F2726"/>
    <circle cx="394" cy="120" r="22" fill="#20282B"/>
    <circle cx="806" cy="120" r="22" fill="#20282B"/>
    <g fill="#F2F0ED">
      <rect x="320" y="302" width="112" height="78" rx="16"/>
      <rect x="468" y="302" width="112" height="78" rx="16"/>
      <rect x="616" y="302" width="112" height="78" rx="16"/>
      <rect x="764" y="302" width="112" height="78" rx="16"/>
      <rect x="320" y="420" width="112" height="78" rx="16"/>
      <rect x="468" y="420" width="112" height="78" rx="16"/>
      <rect x="616" y="420" width="112" height="78" rx="16"/>
      <rect x="764" y="420" width="112" height="78" rx="16"/>
    </g>
    <rect x="468" y="302" width="112" height="78" rx="16" fill="#586063"/>
    <rect x="764" y="420" width="112" height="78" rx="16" fill="#8F2726" opacity=".92"/>
  </g>
  <path d="M720 230l112 300" stroke="#fff" stroke-opacity=".34" stroke-width="7"/>
  <path d="M728 232c-76 70-122 144-144 250h144z" fill="#fff" opacity=".55"/>
</svg>
