<svg xmlns="http://www.w3.org/2000/svg" viewBox="0 0 1200 760" role="img" aria-label="Обучение IYT и навигация">
  <defs>
    <linearGradient id="bg" x1="0" y1="0" x2="1" y2="1"><stop offset="0" stop-color="#20282B"/><stop offset=".58" stop-color="#586063"/><stop offset="1" stop-color="#8F2726"/></linearGradient>
    <linearGradient id="paper" x1="0" y1="0" x2="1" y2="1"><stop offset="0" stop-color="#ffffff"/><stop offset="1" stop-color="#F2F0ED"/></linearGradient>
    <filter id="shadow" x="-20%" y="-20%" width="140%" height="140%"><feDropShadow dx="0" dy="18" stdDeviation="20" flood-color="#000" flood-opacity=".28"/></filter>
  </defs>
  <rect width="1200" height="760" fill="url(#bg)"/>
  <circle cx="980" cy="130" r="92" fill="#fff" opacity=".08"/>
  <circle cx="220" cy="620" r="160" fill="#fff" opacity=".06"/>
  <g filter="url(#shadow)">
    <rect x="250" y="126" width="700" height="460" rx="34" fill="url(#paper)"/>
    <path d="M312 236c132 40 205-64 338-20 108 35 180 2 242-44" fill="none" stroke="#8F2726" stroke-width="8" stroke-linecap="round" opacity=".8"/>
    <path d="M330 420c122-82 248-70 372-20 66 26 128 34 182-18" fill="none" stroke="#586063" stroke-width="7" stroke-linecap="round" opacity=".65"/>
    <circle cx="490" cy="330" r="78" fill="none" stroke="#20282B" stroke-width="8" opacity=".72"/>
    <path d="M490 252v156M412 330h156" stroke="#20282B" stroke-width="5" opacity=".45"/>
    <path d="M516 304l-26 26-46 18 20-44 26-26z" fill="#8F2726"/>
    <path d="M700 300h134M700 342h104M700 384h150" stroke="#20282B" stroke-width="10" stroke-linecap="round" opacity=".26"/>
  </g>
  <path d="M180 600h850" stroke="#fff" stroke-opacity=".18" stroke-width="4"/>
</svg>
